<mxfile host="app.diagrams.net" modified="2024-05-02T23:05:31.074Z" agent="Mozilla/5.0 (Windows NT 10.0; Win64; x64) AppleWebKit/537.36 (KHTML, like Gecko) Chrome/123.0.0.0 Safari/537.36 OPR/109.0.0.0" etag="rlyGcM6FtL3MVoYEG2j2" version="24.0.2" type="github">
  <diagram name="Page-1" id="RGUCVbJrUAb8gim7gf6H">
    <mxGraphModel dx="1423" dy="750" grid="1" gridSize="10" guides="1" tooltips="1" connect="1" arrows="1" fold="1" page="1" pageScale="1" pageWidth="827" pageHeight="1169" math="0" shadow="0">
      <root>
        <mxCell id="0" />
        <mxCell id="1" parent="0" />
        <mxCell id="bLym4JKj9HbBcu2B3I5p-2" value="cbi:CognitiveBias" style="rounded=1;arcSize=10;whiteSpace=wrap;html=1;align=center;fillColor=#f0a30a;strokeColor=#BD7000;fontColor=#000000;" vertex="1" parent="1">
          <mxGeometry x="40" y="360" width="150" height="50" as="geometry" />
        </mxCell>
        <mxCell id="bLym4JKj9HbBcu2B3I5p-11" value="participation:hasParticipant" style="edgeStyle=orthogonalEdgeStyle;rounded=0;orthogonalLoop=1;jettySize=auto;html=1;entryX=0.5;entryY=1;entryDx=0;entryDy=0;" edge="1" parent="1" source="bLym4JKj9HbBcu2B3I5p-3" target="bLym4JKj9HbBcu2B3I5p-7">
          <mxGeometry relative="1" as="geometry" />
        </mxCell>
        <mxCell id="bLym4JKj9HbBcu2B3I5p-12" value="cbi:hasStimulus" style="edgeStyle=orthogonalEdgeStyle;rounded=0;orthogonalLoop=1;jettySize=auto;html=1;exitX=1;exitY=0.5;exitDx=0;exitDy=0;" edge="1" parent="1" source="bLym4JKj9HbBcu2B3I5p-3" target="bLym4JKj9HbBcu2B3I5p-4">
          <mxGeometry relative="1" as="geometry" />
        </mxCell>
        <mxCell id="bLym4JKj9HbBcu2B3I5p-13" value="rdfs:hasSubclass" style="edgeStyle=orthogonalEdgeStyle;rounded=0;orthogonalLoop=1;jettySize=auto;html=1;" edge="1" parent="1" source="bLym4JKj9HbBcu2B3I5p-3" target="bLym4JKj9HbBcu2B3I5p-2">
          <mxGeometry relative="1" as="geometry" />
        </mxCell>
        <mxCell id="bLym4JKj9HbBcu2B3I5p-3" value="cbi:MereExposureEffect" style="rounded=1;arcSize=10;whiteSpace=wrap;html=1;align=center;fillColor=#f0a30a;strokeColor=#BD7000;fontColor=#000000;" vertex="1" parent="1">
          <mxGeometry x="339" y="360" width="150" height="50" as="geometry" />
        </mxCell>
        <mxCell id="bLym4JKj9HbBcu2B3I5p-14" value="parameter:hasParameter" style="edgeStyle=orthogonalEdgeStyle;rounded=0;orthogonalLoop=1;jettySize=auto;html=1;exitX=0.5;exitY=0;exitDx=0;exitDy=0;" edge="1" parent="1" source="bLym4JKj9HbBcu2B3I5p-4" target="bLym4JKj9HbBcu2B3I5p-8">
          <mxGeometry relative="1" as="geometry" />
        </mxCell>
        <mxCell id="bLym4JKj9HbBcu2B3I5p-4" value="emotion:Stimulus" style="rounded=1;arcSize=10;whiteSpace=wrap;html=1;align=center;fillColor=#f0a30a;strokeColor=#BD7000;fontColor=#000000;" vertex="1" parent="1">
          <mxGeometry x="620" y="360" width="150" height="50" as="geometry" />
        </mxCell>
        <mxCell id="bLym4JKj9HbBcu2B3I5p-17" value="cbi:affectedBy" style="edgeStyle=orthogonalEdgeStyle;rounded=0;orthogonalLoop=1;jettySize=auto;html=1;" edge="1" parent="1" source="bLym4JKj9HbBcu2B3I5p-5" target="bLym4JKj9HbBcu2B3I5p-10">
          <mxGeometry relative="1" as="geometry" />
        </mxCell>
        <mxCell id="bLym4JKj9HbBcu2B3I5p-5" value="reco:Preference" style="rounded=1;arcSize=10;whiteSpace=wrap;html=1;align=center;fillColor=#f0a30a;strokeColor=#BD7000;fontColor=#000000;" vertex="1" parent="1">
          <mxGeometry x="40" y="90" width="150" height="50" as="geometry" />
        </mxCell>
        <mxCell id="bLym4JKj9HbBcu2B3I5p-16" value="reaction:hasOutcome" style="edgeStyle=orthogonalEdgeStyle;rounded=0;orthogonalLoop=1;jettySize=auto;html=1;" edge="1" parent="1" source="bLym4JKj9HbBcu2B3I5p-6" target="bLym4JKj9HbBcu2B3I5p-3">
          <mxGeometry relative="1" as="geometry">
            <Array as="points">
              <mxPoint x="115" y="340" />
              <mxPoint x="414" y="340" />
            </Array>
          </mxGeometry>
        </mxCell>
        <mxCell id="bLym4JKj9HbBcu2B3I5p-18" value="cbi:changes" style="edgeStyle=orthogonalEdgeStyle;rounded=0;orthogonalLoop=1;jettySize=auto;html=1;" edge="1" parent="1" source="bLym4JKj9HbBcu2B3I5p-6" target="bLym4JKj9HbBcu2B3I5p-5">
          <mxGeometry relative="1" as="geometry" />
        </mxCell>
        <mxCell id="bLym4JKj9HbBcu2B3I5p-6" value="cbi:ExposureContext" style="rounded=1;arcSize=10;whiteSpace=wrap;html=1;align=center;fillColor=#f0a30a;strokeColor=#BD7000;fontColor=#000000;" vertex="1" parent="1">
          <mxGeometry x="40" y="220" width="150" height="50" as="geometry" />
        </mxCell>
        <mxCell id="bLym4JKj9HbBcu2B3I5p-7" value="fs:People" style="rounded=1;arcSize=10;whiteSpace=wrap;html=1;align=center;fillColor=#f0a30a;strokeColor=#BD7000;fontColor=#000000;" vertex="1" parent="1">
          <mxGeometry x="339" y="200" width="150" height="50" as="geometry" />
        </mxCell>
        <mxCell id="bLym4JKj9HbBcu2B3I5p-15" value="parameter:hasParameterDataValue" style="edgeStyle=orthogonalEdgeStyle;rounded=0;orthogonalLoop=1;jettySize=auto;html=1;entryX=0.5;entryY=1;entryDx=0;entryDy=0;" edge="1" parent="1" source="bLym4JKj9HbBcu2B3I5p-8" target="bLym4JKj9HbBcu2B3I5p-9">
          <mxGeometry relative="1" as="geometry" />
        </mxCell>
        <mxCell id="bLym4JKj9HbBcu2B3I5p-8" value="fs:Frequency" style="rounded=1;arcSize=10;whiteSpace=wrap;html=1;align=center;fillColor=#f0a30a;strokeColor=#BD7000;fontColor=#000000;" vertex="1" parent="1">
          <mxGeometry x="620" y="230" width="150" height="50" as="geometry" />
        </mxCell>
        <mxCell id="bLym4JKj9HbBcu2B3I5p-9" value="&quot;high&quot;^^string" style="shape=parallelogram;perimeter=parallelogramPerimeter;whiteSpace=wrap;html=1;fixedSize=1;fillColor=#dae8fc;strokeColor=#6c8ebf;" vertex="1" parent="1">
          <mxGeometry x="635" y="70" width="120" height="60" as="geometry" />
        </mxCell>
        <mxCell id="bLym4JKj9HbBcu2B3I5p-10" value="cbi:InfluencingFactors" style="rounded=1;arcSize=10;whiteSpace=wrap;html=1;align=center;fillColor=#f0a30a;strokeColor=#BD7000;fontColor=#000000;" vertex="1" parent="1">
          <mxGeometry x="339" y="90" width="150" height="50" as="geometry" />
        </mxCell>
      </root>
    </mxGraphModel>
  </diagram>
</mxfile>
